<svg width="441" height="348" viewBox="0 0 441 348" fill="none" xmlns="http://www.w3.org/2000/svg">
<path d="M273.667 23.8821V266.571L272.857 276.676C271.436 294.217 264.296 310.725 252.619 323.463C250.963 325.265 249.231 326.972 247.423 328.582C245.197 330.58 242.856 332.435 240.413 334.136C239.016 335.114 237.583 336.036 236.127 336.91C227.659 341.998 218.306 345.29 208.609 346.593H139.118C133.588 346.598 128.244 344.517 124.076 340.734C122.013 338.865 120.284 336.632 118.968 334.136C117.13 330.634 116.169 326.707 116.174 322.717V23.8821C116.181 17.5507 118.602 11.4808 122.904 7.0038C127.206 2.52678 133.039 0.00804758 139.124 0H250.723C250.987 0 251.245 0.00611213 251.509 0.0122217C251.68 0.0183312 251.85 0.0244426 252.02 0.0427711C252.249 0.0488807 252.478 0.0672104 252.701 0.0916485C252.989 0.109977 253.271 0.140487 253.553 0.177144C253.811 0.213801 254.069 0.25046 254.327 0.293227C254.38 0.299336 254.427 0.31156 254.48 0.31767C254.809 0.372656 255.138 0.433749 255.461 0.507064C255.784 0.574268 256.112 0.653686 256.429 0.739219C256.658 0.800314 256.893 0.867524 257.122 0.934729C257.128 0.934729 257.14 0.940835 257.146 0.940835C257.821 1.14856 258.49 1.38683 259.148 1.66176C259.353 1.74119 259.559 1.83283 259.758 1.92447L259.846 1.96112C260.011 2.03444 260.169 2.10776 260.328 2.18718C260.803 2.41324 261.273 2.66372 261.737 2.92643C262.5 3.36414 263.239 3.84551 263.95 4.36832C264.179 4.53327 264.402 4.71044 264.62 4.88762C264.802 5.02814 264.984 5.17476 265.16 5.33361C265.175 5.34171 265.189 5.352 265.201 5.36416C265.224 5.38249 265.248 5.40693 265.271 5.42526C265.43 5.55356 265.582 5.68797 265.729 5.82238C266.017 6.07898 266.299 6.34779 266.575 6.62272C266.651 6.69604 266.727 6.76936 266.804 6.84878C266.88 6.9221 266.95 7.00151 267.027 7.08094C267.103 7.15425 267.174 7.23368 267.244 7.307C267.286 7.34462 267.325 7.38546 267.361 7.42918C267.573 7.66135 267.778 7.89962 267.978 8.13789C268.23 8.43726 268.477 8.74273 268.706 9.05432C268.906 9.31092 269.093 9.56751 269.275 9.83022C269.446 10.0685 269.604 10.3068 269.763 10.5512C269.805 10.6119 269.844 10.6752 269.88 10.7405C270.045 10.991 270.197 11.2476 270.35 11.5042C270.731 12.1518 271.078 12.8239 271.395 13.5021C271.512 13.7587 271.624 14.0091 271.73 14.2657C271.865 14.5773 271.988 14.8889 272.105 15.2005C272.152 15.3166 272.193 15.4388 272.234 15.5549C272.299 15.732 272.358 15.9092 272.416 16.0864C272.481 16.2819 272.546 16.4835 272.604 16.679L272.745 17.1555C272.827 17.4427 272.898 17.7237 272.968 18.0109C273.009 18.1819 273.051 18.353 273.086 18.5302C273.361 19.7779 273.54 21.0467 273.62 22.3242C273.626 22.4831 273.638 22.6358 273.644 22.7946C273.661 23.1551 273.667 23.5156 273.667 23.8821Z" fill="#3F3D56"/>
<path d="M273.667 23.8821L273.667 124.579L259.095 141.051C258.437 140.33 257.79 139.599 257.152 138.857C256.242 137.819 255.353 136.764 254.486 135.693C254.257 135.418 254.04 135.149 253.817 134.874C253.235 134.165 252.672 133.444 252.108 132.717C247.008 126.151 242.461 119.14 238.517 111.762C238.023 110.839 237.542 109.916 237.066 108.982C232.783 100.54 229.3 91.6844 226.669 82.5397C226.369 81.5072 226.081 80.4624 225.811 79.4177C223.636 71.2398 222.145 62.8813 221.355 54.4359C221.244 53.2445 221.144 52.0593 221.062 50.8679C221.062 50.8373 221.056 50.8007 221.056 50.7702C220.962 49.4749 220.897 48.1797 220.839 46.8723C220.127 31.0639 221.855 15.2389 225.958 0H250.723C250.987 0 251.245 0.00611213 251.509 0.0122217C251.68 0.0183312 251.85 0.0244426 252.02 0.0427711C252.249 0.0488807 252.478 0.0672104 252.701 0.0916485C252.989 0.109977 253.271 0.140487 253.553 0.177144C253.811 0.213801 254.069 0.25046 254.327 0.293227C254.38 0.299336 254.427 0.31156 254.48 0.31767H254.486C254.815 0.372656 255.144 0.433749 255.467 0.507064C255.789 0.574268 256.118 0.653686 256.435 0.739219C256.664 0.800314 256.899 0.867524 257.128 0.934729C257.134 0.934729 257.146 0.940835 257.152 0.940835C257.827 1.14856 258.49 1.38683 259.148 1.66176C259.353 1.74119 259.559 1.83283 259.758 1.92447L259.846 1.96112C260.011 2.03444 260.169 2.10776 260.328 2.18718C260.803 2.41324 261.273 2.66372 261.737 2.92643C262.5 3.36414 263.239 3.84551 263.95 4.36832C264.179 4.53327 264.402 4.71044 264.62 4.88762C264.802 5.02814 264.984 5.17476 265.16 5.33361C265.175 5.34171 265.189 5.352 265.201 5.36416H265.207C265.312 5.4558 265.418 5.54745 265.518 5.63909C265.588 5.70018 265.665 5.76128 265.729 5.82238C265.829 5.90791 265.923 5.99956 266.023 6.08509C266.07 6.12786 266.117 6.17062 266.158 6.21339C266.299 6.34779 266.434 6.4822 266.575 6.62272C266.651 6.69604 266.727 6.76936 266.804 6.84878C266.88 6.9221 266.95 7.00151 267.027 7.08094C267.103 7.15425 267.174 7.23368 267.244 7.307L267.25 7.3131C267.293 7.34544 267.33 7.38461 267.361 7.42918C267.573 7.66135 267.778 7.89962 267.978 8.13789C268.23 8.43726 268.477 8.74273 268.706 9.05432C268.906 9.31092 269.093 9.56751 269.275 9.83022C269.446 10.0685 269.604 10.3068 269.763 10.5512C269.805 10.6119 269.844 10.6752 269.88 10.7405C270.045 10.991 270.197 11.2476 270.35 11.5042C270.731 12.1518 271.078 12.8239 271.395 13.5021C271.512 13.7587 271.624 14.0091 271.73 14.2657C271.865 14.5773 271.988 14.8889 272.105 15.2005C272.152 15.3166 272.193 15.4388 272.234 15.5549C272.299 15.732 272.358 15.9092 272.416 16.0864C272.481 16.2819 272.546 16.4835 272.604 16.679L272.745 17.1555C272.827 17.4427 272.898 17.7237 272.968 18.0109C273.009 18.1819 273.051 18.353 273.086 18.5302C273.361 19.7779 273.54 21.0467 273.62 22.3242C273.626 22.4831 273.638 22.6358 273.644 22.7946C273.661 23.1551 273.667 23.5156 273.667 23.8821Z" fill="#0A3A68"/>
<path d="M273.673 54.4359V51.6499H257.152V8.13789H267.984C267.784 7.89962 267.579 7.66135 267.367 7.42918L267.361 7.42918C267.33 7.38461 267.293 7.34544 267.25 7.3131V7.30699L267.244 7.307C267.174 7.23368 267.103 7.15425 267.027 7.08094C266.959 6.99911 266.886 6.9216 266.81 6.84878L266.804 6.84878C266.727 6.76936 266.651 6.69604 266.575 6.62272C266.434 6.4822 266.299 6.34779 266.158 6.21339C266.117 6.17062 266.07 6.12786 266.023 6.08509C265.923 5.99956 265.829 5.90791 265.729 5.82238C265.665 5.76128 265.588 5.70018 265.518 5.63909C265.418 5.54745 265.312 5.4558 265.207 5.36416H257.152L257.152 0.940835C257.146 0.940835 257.134 0.934729 257.128 0.934729C256.899 0.867524 256.664 0.800314 256.435 0.739219C256.118 0.653686 255.789 0.574268 255.467 0.507064C255.144 0.433749 254.815 0.372656 254.486 0.31767L254.486 8.13789C254.485 18.1635 251.158 27.8814 245.067 35.6491C238.976 43.4169 230.494 48.7581 221.056 50.7702C221.056 50.8007 221.062 50.8373 221.062 50.8679C221.144 52.0593 221.244 53.2445 221.355 54.4359L254.486 54.4359V108.982H237.066C237.542 109.916 238.023 110.839 238.517 111.762H254.486L254.486 135.693C255.355 136.762 256.243 137.817 257.152 138.857L257.152 111.762H273.673V106.153H273.667C273.614 106.171 273.567 106.19 273.514 106.208C265.465 109.024 257.152 102.671 257.152 93.8301V54.4359H273.673Z" fill="black"/>
<path d="M75.1179 275.749L45.9137 265.131C42.6985 248.559 43.4195 231.421 48.014 215.205C59.093 242.96 93.6477 250.72 112.834 273.185C118.766 280.24 123.097 288.593 125.505 297.626C127.914 306.659 128.338 316.14 126.746 325.366L132.338 347.444C117.89 345.719 103.974 340.756 91.5471 332.896C79.1203 325.037 68.4787 314.467 60.3555 301.915C55.8654 294.827 52.251 287.178 49.5976 279.15C62.204 278.219 75.1179 275.749 75.1179 275.749Z" fill="#F2F2F2"/>
<path d="M114.581 108.73C113.897 108.729 113.24 108.446 112.756 107.942C112.272 107.438 112 106.755 111.999 106.043V87.7677C111.998 87.4145 112.065 87.0645 112.194 86.738C112.324 86.4115 112.514 86.1147 112.754 85.8648C112.994 85.6148 113.279 85.4164 113.592 85.2811C113.906 85.1458 114.242 85.0762 114.581 85.0762C114.921 85.0762 115.257 85.1458 115.571 85.2811C115.884 85.4164 116.169 85.6148 116.409 85.8648C116.649 86.1147 116.839 86.4115 116.969 86.738C117.098 87.0645 117.165 87.4145 117.164 87.7677V106.043C117.163 106.755 116.891 107.438 116.407 107.942C115.923 108.446 115.266 108.729 114.581 108.73Z" fill="#3F3D56"/>
<path d="M205.134 94.1383H184.714C180.309 94.1383 176.739 97.854 176.739 102.438C176.739 107.021 180.309 110.737 184.714 110.737H205.134C209.538 110.737 213.109 107.021 213.109 102.438C213.109 97.854 209.538 94.1383 205.134 94.1383Z" fill="#0A3A68"/>
<path d="M243.017 127.335H146.831C142.426 127.335 138.855 131.051 138.855 135.635C138.855 140.218 142.426 143.934 146.831 143.934H243.017C247.422 143.934 250.993 140.218 250.993 135.635C250.993 131.051 247.422 127.335 243.017 127.335Z" fill="white"/>
<path d="M243.017 160.533H146.831C142.426 160.533 138.855 164.248 138.855 168.832C138.855 173.416 142.426 177.131 146.831 177.131H243.017C247.422 177.131 250.993 173.416 250.993 168.832C250.993 164.248 247.422 160.533 243.017 160.533Z" fill="white"/>
<path d="M114.065 73.2552C113.38 73.2544 112.724 72.971 112.24 72.4672C111.755 71.9633 111.483 71.2802 111.482 70.5677V52.2928C111.483 51.5807 111.756 50.8982 112.24 50.395C112.724 49.8919 113.381 49.6093 114.065 49.6093C114.749 49.6093 115.406 49.8919 115.89 50.395C116.374 50.8982 116.647 51.5807 116.648 52.2928V70.5677C116.647 71.2802 116.374 71.9633 115.89 72.4672C115.406 72.971 114.75 73.2544 114.065 73.2552Z" fill="#3F3D56"/>
<path d="M177.479 8.87888C177.48 8.16637 177.752 7.48328 178.236 6.97945C178.721 6.47563 179.377 6.19221 180.062 6.19138H197.624C198.309 6.19138 198.965 6.47454 199.45 6.97854C199.934 7.48254 200.206 8.16611 200.206 8.87888C200.206 9.59165 199.934 10.2752 199.45 10.7792C198.965 11.2832 198.309 11.5664 197.624 11.5664H180.062C179.377 11.5655 178.721 11.2821 178.236 10.7783C177.752 10.2745 177.48 9.59139 177.479 8.87888Z" fill="white"/>
<path d="M114.581 139.905C113.897 139.904 113.24 139.621 112.756 139.117C112.272 138.613 112 137.93 111.999 137.218V118.943C111.998 118.589 112.065 118.239 112.194 117.913C112.324 117.586 112.514 117.29 112.754 117.04C112.994 116.79 113.279 116.591 113.592 116.456C113.906 116.321 114.242 116.251 114.581 116.251C114.921 116.251 115.257 116.321 115.571 116.456C115.884 116.591 116.169 116.79 116.409 117.04C116.649 117.29 116.839 117.586 116.969 117.913C117.098 118.239 117.165 118.589 117.164 118.943V137.218C117.163 137.93 116.891 138.613 116.407 139.117C115.923 139.621 115.266 139.904 114.581 139.905Z" fill="#3F3D56"/>
<path d="M275.451 100.193C274.766 100.192 274.11 99.909 273.625 99.4052C273.141 98.9014 272.869 98.2183 272.868 97.5058V79.2308C272.868 78.8775 272.934 78.5276 273.064 78.201C273.193 77.8745 273.383 77.5778 273.623 77.3278C273.863 77.0778 274.148 76.8795 274.462 76.7442C274.775 76.6088 275.111 76.5392 275.451 76.5392C275.79 76.5392 276.126 76.6088 276.44 76.7442C276.754 76.8795 277.039 77.0778 277.278 77.3278C277.518 77.5778 277.708 77.8745 277.838 78.201C277.968 78.5276 278.034 78.8775 278.033 79.2308V97.5057C278.033 98.2182 277.76 98.9014 277.276 99.4052C276.792 99.909 276.136 100.192 275.451 100.193Z" fill="#3F3D56"/>
<path d="M207.438 11.5664C208.864 11.5664 210.02 10.3631 210.02 8.87888C210.02 7.39462 208.864 6.19139 207.438 6.19139C206.011 6.19139 204.855 7.39462 204.855 8.87888C204.855 10.3631 206.011 11.5664 207.438 11.5664Z" fill="white"/>
<path d="M348.681 266.294V226.942C348.682 226.146 348.986 225.382 349.527 224.819C350.069 224.256 350.802 223.939 351.568 223.938H380.127C380.892 223.939 381.626 224.256 382.167 224.819C382.709 225.382 383.013 226.146 383.014 226.942V266.294C383.013 267.09 382.709 267.854 382.167 268.417C381.626 268.98 380.892 269.297 380.127 269.298H351.568C350.802 269.297 350.068 268.98 349.527 268.417C348.986 267.854 348.682 267.09 348.681 266.294Z" fill="#E6E6E6"/>
<path d="M350.871 254.408V229.109C350.872 228.363 351.157 227.648 351.664 227.121C352.171 226.593 352.858 226.297 353.575 226.296H378.119C378.836 226.297 379.523 226.593 380.03 227.121C380.537 227.648 380.822 228.363 380.823 229.109V264.126C380.822 264.872 380.537 265.588 380.03 266.115C379.523 266.642 378.836 266.939 378.119 266.94H362.915C359.722 266.936 356.661 265.615 354.403 263.265C352.145 260.916 350.875 257.73 350.871 254.408Z" fill="white"/>
<path d="M354.845 236.168C354.846 235.439 355.125 234.74 355.62 234.225C356.115 233.71 356.787 233.42 357.487 233.419H374.514C375.215 233.419 375.887 233.708 376.382 234.224C376.877 234.74 377.156 235.439 377.156 236.168C377.156 236.897 376.877 237.597 376.382 238.112C375.887 238.628 375.215 238.917 374.514 238.917H357.487C356.787 238.917 356.115 238.627 355.62 238.111C355.125 237.596 354.846 236.897 354.845 236.168Z" fill="#E6E6E6"/>
<path d="M354.845 244.721C354.846 243.993 355.125 243.294 355.62 242.778C356.115 242.263 356.787 241.973 357.487 241.972H374.514C375.215 241.972 375.887 242.262 376.382 242.777C376.877 243.293 377.156 243.992 377.156 244.721C377.156 245.451 376.877 246.15 376.382 246.665C375.887 247.181 375.215 247.471 374.514 247.471H357.487C356.787 247.47 356.115 247.18 355.62 246.665C355.125 246.149 354.846 245.45 354.845 244.721Z" fill="#E6E6E6"/>
<path d="M354.845 253.275C354.846 252.546 355.125 251.847 355.62 251.332C356.115 250.816 356.787 250.526 357.487 250.525H374.514C375.215 250.525 375.887 250.815 376.382 251.331C376.877 251.846 377.156 252.546 377.156 253.275C377.156 254.004 376.877 254.703 376.382 255.219C375.887 255.734 375.215 256.024 374.514 256.024H357.487C356.787 256.023 356.115 255.733 355.62 255.218C355.125 254.702 354.846 254.004 354.845 253.275Z" fill="#E6E6E6"/>
<path d="M350 335.665H344.49L341.868 313.546L350.001 313.546L350 335.665Z" fill="#FFB6B6"/>
<path d="M352.465 346.554H348.555L347.857 342.712L346.069 346.554H335.698C335.201 346.554 334.717 346.388 334.316 346.082C333.916 345.775 333.62 345.344 333.472 344.85C333.324 344.356 333.332 343.826 333.494 343.337C333.656 342.848 333.964 342.425 334.373 342.131L342.656 336.179V332.295L351.367 332.836L352.465 346.554Z" fill="#2F2E41"/>
<path d="M331.784 322.701L327.003 325.553L314.156 307.721L321.213 303.512L331.784 322.701Z" fill="#FFB6B6"/>
<path d="M339.127 330.872L335.734 332.896L333.293 329.924L333.578 334.182L324.581 339.55C324.149 339.807 323.65 339.915 323.156 339.856C322.662 339.797 322.199 339.576 321.835 339.224C321.471 338.872 321.224 338.408 321.131 337.9C321.038 337.392 321.103 336.866 321.318 336.399L325.658 326.949L323.801 323.579L331.617 319.54L339.127 330.872Z" fill="#2F2E41"/>
<path d="M309.943 179.983L306.749 201.166L337.086 201.582L333.094 181.229L309.943 179.983Z" fill="#FFB6B6"/>
<path d="M307.63 195.994L297.968 222.765L297.393 276.034L297.015 285.219L314.041 316.989L325.502 309.047L311.693 282.165V282.088C311.693 277.143 313.954 261.496 317.784 258.568L324.512 244.572L329.893 277.888L342.474 324.662L351.616 324.931L347.758 280.759L347.402 274.977L346.023 271.035L345.803 267.456L346.672 263.108L344.869 233.772C344.869 233.772 346.517 214.181 338.083 202.62L336.03 196.449L307.63 195.994Z" fill="#2F2E41"/>
<path d="M345.447 229.042C345.054 228.597 344.76 228.068 344.585 227.493C344.41 226.917 344.359 226.308 344.434 225.71C344.509 225.111 344.71 224.537 345.022 224.028C345.334 223.519 345.749 223.087 346.238 222.763L342.986 208.482L349.87 211.099L351.903 224.259C352.372 225.151 352.51 226.191 352.291 227.181C352.073 228.172 351.512 229.045 350.717 229.634C349.921 230.224 348.945 230.489 347.974 230.38C347.002 230.271 346.103 229.794 345.447 229.042Z" fill="#FFB8B8"/>
<path d="M328.892 169.197L331.655 176.59C331.655 176.59 330.471 183.982 332.444 185.625C334.418 187.268 333.629 187.268 333.629 188.5C333.697 189.384 333.942 190.243 334.35 191.021C334.758 191.8 335.319 192.48 335.997 193.018C337.575 194.25 344.68 219.303 344.68 219.303H351.784C351.554 217.394 351.554 215.463 351.784 213.553C352.179 210.678 350.6 203.286 349.811 202.054C349.021 200.821 349.811 199.179 349.811 196.714C349.811 194.25 348.232 193.018 348.232 188.911C348.232 184.804 343.496 152.769 343.89 149.072C344.285 145.376 339.943 142.09 339.943 142.09H335.997L328.892 169.197Z" fill="#3F3D56"/>
<path d="M270.99 148.249C271.062 148.848 271.261 149.423 271.57 149.934C271.879 150.445 272.293 150.879 272.781 151.205C273.269 151.532 273.82 151.743 274.395 151.824C274.97 151.905 275.555 151.854 276.109 151.674L284.489 163.479L287.013 156.319L278.668 146.206C278.316 145.258 277.642 144.477 276.774 144.011C275.906 143.545 274.903 143.427 273.957 143.679C273.01 143.931 272.186 144.535 271.639 145.377C271.092 146.22 270.861 147.242 270.99 148.249Z" fill="#FFB8B8"/>
<path d="M305.041 187.911C305.014 187.861 305.001 187.804 305.002 187.747C305.004 187.689 305.021 187.633 305.051 187.585C305.625 186.532 308.327 159.754 310.003 142.013L310.024 141.789L310.241 141.796C310.285 141.797 314.656 141.884 318.509 137.414C319.013 136.83 319.074 135.484 319.138 134.058C319.216 132.321 319.298 130.526 320.189 129.599L320.227 129.559L320.279 129.54C324.029 128.24 330.362 129.081 332.245 129.534L332.327 129.554L332.377 129.624C333.156 130.692 333.113 132.402 333.071 134.056C333.034 135.544 332.999 136.949 333.632 137.372C334.123 137.701 334.594 138.014 335.046 138.314C340.62 142.013 343.418 143.871 345.468 149.914C346.218 152.127 346.458 153.984 346.179 155.432C344.977 161.691 346.987 193.017 347.285 194.257C347.488 194.841 347.779 195.388 348.149 195.875C348.647 196.622 349.077 197.266 348.829 197.76C348.66 198.096 348.224 198.253 347.456 198.253C344.56 198.253 305.884 189.55 305.041 187.911Z" fill="#3F3D56"/>
<path d="M287.515 169.599L287.451 169.556L286.726 167.614L283.31 166.709L277.16 153.911L282.05 149.331L288.633 153.326L291.029 156.661L293.999 157.879L300.964 163.224L307.245 145.247C307.576 144.3 308.097 143.436 308.773 142.714C309.449 141.992 310.265 141.428 311.166 141.059C312.068 140.69 313.034 140.525 314.002 140.574C314.969 140.623 315.916 140.885 316.778 141.344L323.569 144.955L323.628 144.999C323.736 145.112 326.274 147.823 325.843 152.781C325.438 157.427 322.202 164.951 309.065 174.427L301.532 178.836L287.515 169.599Z" fill="#3F3D56"/>
<path d="M315.016 121.319C316.414 123.98 318.641 126.066 321.331 127.233C324.02 128.4 327.012 128.58 329.813 127.742C332.613 126.904 335.056 125.098 336.739 122.622C338.422 120.147 339.244 117.148 339.071 114.121C338.897 111.094 337.738 108.218 335.784 105.968C333.831 103.718 331.199 102.228 328.322 101.742C325.446 101.256 322.496 101.804 319.959 103.296C317.422 104.788 315.448 107.135 314.364 109.949C314.305 110.102 314.252 110.255 314.2 110.414C313.586 112.188 313.342 114.078 313.483 115.958C313.624 117.837 314.146 119.665 315.016 121.319Z" fill="#FFB6B6"/>
<path d="M313.172 110.414C313.724 108.807 313.483 109.644 314.041 108.043C313.862 108.832 313.917 109.659 314.2 110.414L329.47 110.414V101.176C324.997 99.331 320.623 97.7609 317.981 101.176C315.626 101.176 313.368 102.149 311.704 103.882C310.039 105.614 309.104 107.964 309.103 110.414H313.172Z" fill="#3F3D56"/>
<path d="M318.585 136.092C318.597 135.921 318.615 135.744 318.638 135.573C318.843 134.318 319.176 133.089 319.63 131.907C320.071 130.618 320.517 129.323 320.963 128.034C320.388 130.374 320.564 132.845 321.462 135.072C324.04 132.982 322.413 128.205 325.783 128.205C333.885 128.205 342.223 121.368 342.223 112.931C342.223 104.5 338.747 98.1946 330.645 98.1946C322.537 98.1946 315.961 102.056 315.802 110.487C325.783 112.931 316.701 135.237 318.585 136.092Z" fill="#2F2E41"/>
<path d="M341.21 111.639C346.398 111.639 350.604 107.262 350.604 101.863C350.604 96.4646 346.398 92.0881 341.21 92.0881C336.022 92.0881 331.816 96.4646 331.816 101.863C331.816 107.262 336.022 111.639 341.21 111.639Z" fill="#2F2E41"/>
<path d="M337.831 94.2234L338.958 92.7205C341.6 97.1132 346.978 98.7751 350.471 102.471C356.202 108.538 355.573 118.399 353.513 126.628C351.446 134.858 348.323 143.381 350.366 151.622C351.728 157.121 355.268 161.752 359.049 165.852C362.613 169.725 366.84 173.427 371.561 175.303C371.871 173.827 372.293 172.378 372.823 170.971C373.451 169.138 374.079 167.299 374.713 165.473C373.899 168.794 374.149 172.301 375.424 175.462C375.553 175.792 375.7 176.122 375.852 176.445C376.757 176.568 377.671 176.611 378.582 176.574C380.9 176.46 383.163 175.8 385.199 174.643C385.508 173.398 385.885 172.172 386.327 170.971C386.955 169.138 387.583 167.299 388.217 165.473C387.636 167.812 387.588 170.259 388.076 172.621C391.109 170.037 393.22 166.467 394.071 162.485C395.585 154.964 392.262 146.784 386.35 142.183C382.029 138.823 376.68 137.302 371.807 134.882C366.934 132.469 362.155 128.583 361.104 123.079C359.537 114.843 366.799 107.579 367.803 99.2516C368.766 91.2237 362.824 82.9697 355.151 81.6806C347.477 80.3976 339.34 86.2872 337.831 94.2234Z" fill="#2F2E41"/>
<path d="M247.427 328.581C245.201 330.578 242.86 332.433 240.417 334.134C239.02 335.112 237.587 336.034 236.131 336.908C227.663 341.997 218.31 345.288 208.613 346.592H139.122C133.592 346.597 128.248 344.515 124.08 340.733C122.017 338.864 120.288 336.63 118.972 334.134C117.134 330.633 116.173 326.706 116.178 322.716V190.97C118.831 191.165 121.466 191.44 124.08 191.795C124.973 191.911 125.859 192.039 126.746 192.18C144.894 194.968 162.344 201.416 178.118 211.162C179.011 211.712 179.903 212.274 180.784 212.854C188.68 217.973 196.074 223.887 202.859 230.511C203.793 231.421 204.714 232.348 205.624 233.291C220.569 248.661 232.049 267.29 239.237 287.836C239.56 288.759 239.873 289.688 240.176 290.622C244.191 302.887 246.629 315.651 247.427 328.581Z" fill="#0A3A68"/>
<path d="M180.784 334.134C180.784 328.42 181.865 322.761 183.967 317.482C186.069 312.202 189.15 307.405 193.033 303.365C196.916 299.324 201.527 296.119 206.6 293.933C211.674 291.746 217.112 290.622 222.604 290.622H240.176C239.871 289.688 239.558 288.759 239.237 287.836L180.784 287.836V233.29L205.624 233.291C204.714 232.35 203.793 231.423 202.859 230.511H180.784L180.784 212.854C179.903 212.274 179.011 211.712 178.118 211.162L178.118 230.511H126.746L126.746 192.18C125.859 192.039 124.973 191.911 124.08 191.795L124.08 230.511H116.178V233.29H124.08V287.836H116.178V290.622H124.08V334.134L118.972 334.134C119.481 335.098 120.052 336.025 120.681 336.908H124.08L124.08 340.733C124.919 341.494 125.81 342.19 126.746 342.816V336.908H178.118V346.592H180.784V336.908L236.131 336.908C237.587 336.034 239.02 335.112 240.417 334.134L180.784 334.134ZM178.118 334.134H126.746V290.622H178.118V334.134ZM178.118 287.836H126.746V286.755C126.745 272.576 132.158 258.978 141.792 248.952C151.426 238.925 164.493 233.292 178.118 233.29V287.836Z" fill="black"/>
<path d="M169.024 260.606C169.024 262.909 168.29 265.146 166.936 266.967C165.582 268.788 163.685 270.089 161.543 270.667C159.401 271.244 157.135 271.064 155.102 270.156C153.069 269.248 151.383 267.663 150.31 265.649C149.236 263.636 148.836 261.308 149.172 259.033C149.508 256.757 150.56 254.662 152.165 253.076C153.769 251.49 155.834 250.504 158.036 250.273C160.237 250.041 162.45 250.577 164.327 251.796C162.375 254.172 160.756 256.823 159.518 259.671C161.718 257.381 164.533 255.837 167.591 255.242C168.532 256.86 169.028 258.715 169.024 260.606Z" fill="#2F2E41"/>
<path d="M203.064 319.881C201.499 318.254 200.498 316.131 200.218 313.847C199.938 311.563 200.395 309.247 201.518 307.263C202.64 305.279 204.364 303.739 206.419 302.885C208.474 302.031 210.743 301.911 212.87 302.545C214.997 303.179 216.862 304.53 218.171 306.387C219.48 308.243 220.159 310.499 220.102 312.801C220.045 315.102 219.255 317.319 217.856 319.103C216.457 320.886 214.528 322.136 212.372 322.655C212.138 319.539 211.481 316.473 210.421 313.548C210.421 316.786 209.481 319.949 207.722 322.62C205.958 322.169 204.346 321.221 203.064 319.881Z" fill="#2F2E41"/>
<path d="M262.244 32.5042H127.605C127.449 32.5006 127.301 32.4336 127.192 32.3177C127.083 32.2017 127.022 32.046 127.022 31.8838C127.022 31.7217 127.083 31.5659 127.192 31.45C127.301 31.334 127.449 31.2671 127.605 31.2635H262.244C262.4 31.2671 262.548 31.334 262.657 31.45C262.766 31.5659 262.827 31.7217 262.827 31.8838C262.827 32.046 262.766 32.2017 262.657 32.3177C262.548 32.4336 262.4 32.5006 262.244 32.5042Z" fill="white"/>
<path d="M137.809 28.0962C139.738 28.0962 141.303 26.4323 141.303 24.3798C141.303 22.3272 139.738 20.6633 137.809 20.6633C135.88 20.6633 134.315 22.3272 134.315 24.3798C134.315 26.4323 135.88 28.0962 137.809 28.0962Z" fill="white"/>
<path d="M149.878 28.0962C151.807 28.0962 153.371 26.4323 153.371 24.3798C153.371 22.3272 151.807 20.6633 149.878 20.6633C147.948 20.6633 146.384 22.3272 146.384 24.3798C146.384 26.4323 147.948 28.0962 149.878 28.0962Z" fill="white"/>
<path d="M161.946 28.0962C163.876 28.0962 165.44 26.4323 165.44 24.3798C165.44 22.3272 163.876 20.6633 161.946 20.6633C160.017 20.6633 158.453 22.3272 158.453 24.3798C158.453 26.4323 160.017 28.0962 161.946 28.0962Z" fill="white"/>
<path d="M254.977 21.5845H246.404C246.235 21.588 246.073 21.6607 245.954 21.787C245.835 21.9133 245.768 22.0831 245.768 22.26C245.768 22.4368 245.835 22.6066 245.954 22.7329C246.073 22.8592 246.235 22.9319 246.404 22.9355H254.977C255.147 22.9319 255.309 22.8592 255.428 22.7329C255.547 22.6066 255.614 22.4368 255.614 22.26C255.614 22.0831 255.547 21.9133 255.428 21.787C255.309 21.6607 255.147 21.588 254.977 21.5845Z" fill="white"/>
<path d="M254.977 24.1201H246.404C246.235 24.1236 246.073 24.1963 245.954 24.3226C245.835 24.4489 245.768 24.6187 245.768 24.7955C245.768 24.9724 245.835 25.1422 245.954 25.2685C246.073 25.3948 246.235 25.4675 246.404 25.471H254.977C255.147 25.4675 255.309 25.3948 255.428 25.2685C255.547 25.1422 255.614 24.9724 255.614 24.7955C255.614 24.6187 255.547 24.4489 255.428 24.3226C255.309 24.1963 255.147 24.1236 254.977 24.1201Z" fill="white"/>
<path d="M254.977 26.6523H246.404C246.235 26.6558 246.073 26.7285 245.954 26.8548C245.835 26.9811 245.768 27.1509 245.768 27.3278C245.768 27.5046 245.835 27.6744 245.954 27.8007C246.073 27.927 246.235 27.9998 246.404 28.0033H254.977C255.147 27.9998 255.309 27.927 255.428 27.8007C255.547 27.6744 255.614 27.5046 255.614 27.3278C255.614 27.1509 255.547 26.9811 255.428 26.8548C255.309 26.7285 255.147 26.6558 254.977 26.6523Z" fill="white"/>
<path d="M440.299 347.812L0.697046 348C0.511993 347.999 0.334706 347.923 0.204042 347.786C0.073379 347.65 0 347.465 0 347.273C0 347.08 0.073379 346.895 0.204042 346.759C0.334706 346.623 0.511993 346.546 0.697046 346.545L440.299 346.357C440.484 346.358 440.661 346.435 440.792 346.571C440.923 346.707 440.996 346.892 440.996 347.085C440.996 347.277 440.923 347.462 440.792 347.598C440.661 347.735 440.484 347.812 440.299 347.812Z" fill="#CACACA"/>
</svg>
